<svg width="100" height="150" viewBox="0 0 100 150" fill="none" xmlns="http://www.w3.org/2000/svg">
<path d="M47.9741 0C73.9205 0 99.465 11.9495 99.465 40.5316C99.465 66.8894 69.2612 77.0259 62.7747 86.5501C57.9049 93.6346 59.5313 103.589 46.1516 103.589C37.4358 103.589 33.1784 96.5 33.1784 90.0134C33.1784 65.8752 68.6441 60.4123 68.6441 40.5364C68.6441 29.5963 61.3635 23.1097 49.194 23.1097C23.2476 23.1097 33.3793 49.8597 13.7282 49.8597C6.63407 49.8597 0.544526 45.6023 0.544526 37.4988C0.539742 17.6181 23.238 0 47.9741 0ZM46.9648 116.749C56.0728 116.749 63.5879 124.24 63.5879 133.377C63.5879 142.514 56.0871 150.005 46.9648 150.005C37.8424 150.005 30.3369 142.523 30.3369 133.377C30.3369 124.245 37.8424 116.749 46.9648 116.749Z" fill="#5C2EA8"/>
</svg>
