<svg width="54" height="36" viewBox="0 0 54 36" fill="none" xmlns="http://www.w3.org/2000/svg">
<path d="M49.8397 25.4591C49.3524 24.9358 48.5622 24.9358 48.075 25.4591C47.5876 25.9827 47.5876 26.8313 48.075 27.3547L49.7394 29.1424H48.495C41.3137 29.1424 34.5626 26.1388 29.4849 20.6849L27.8165 18.8929L31.2415 15.2142C36.1967 9.89173 42.7462 6.9045 49.7332 6.76349L48.0752 8.54439C47.5878 9.06803 47.5878 9.91657 48.0752 10.44C48.3188 10.7017 48.6382 10.8325 48.9575 10.8325C49.2768 10.8325 49.5963 10.7017 49.8399 10.44L53.6348 6.36406C54.1221 5.84043 54.1221 4.99188 53.6348 4.46843L49.8399 0.392459C49.3526 -0.13082 48.5624 -0.13082 48.0752 0.392459C47.5878 0.916096 47.5878 1.76464 48.0752 2.2881L49.7457 4.0824C42.0871 4.22037 34.9062 7.48657 29.4766 13.3184L26.0516 16.9971L22.6266 13.3184C17.0775 7.35826 9.69956 4.07579 1.85159 4.07579H1.73379C1.0446 4.07579 0.48586 4.67574 0.48586 5.41615C0.48586 6.15657 1.0446 6.75652 1.73379 6.75652H1.85159C9.03283 6.75652 15.7841 9.76019 20.8617 15.2141L24.2867 18.8927L22.6183 20.6847C17.5405 26.1388 10.7893 29.1423 3.60818 29.1423H1.24793C0.558739 29.1423 0 29.7422 0 30.4826C0 31.223 0.558739 31.823 1.24793 31.823H3.60784C11.4558 31.823 18.8337 28.5405 24.3828 22.5804L26.0514 20.7882L27.72 22.5804C33.2691 28.5405 40.647 31.823 48.495 31.823H49.7394L48.075 33.6107C47.5876 34.1343 47.5876 34.9829 48.075 35.5063C48.3186 35.768 48.6381 35.8988 48.9574 35.8988C49.2767 35.8988 49.5961 35.768 49.8397 35.5063L53.6346 31.4303C54.122 30.9067 54.122 30.0582 53.6346 29.5347L49.8397 25.4591Z" fill="white"/>
</svg>
